<mxfile host="app.diagrams.net" modified="2023-05-15T23:40:12.919Z" agent="Mozilla/5.0 (Windows NT 10.0; Win64; x64; rv:109.0) Gecko/20100101 Firefox/113.0" etag="kixFK3hzj9wTi6SR3JaW" version="21.3.2" type="github">
  <diagram name="Page-1" id="GQLYx4lFxt-uooIH3Gt9">
    <mxGraphModel dx="954" dy="556" grid="1" gridSize="10" guides="1" tooltips="1" connect="1" arrows="1" fold="1" page="1" pageScale="1" pageWidth="1100" pageHeight="1700" math="0" shadow="0">
      <root>
        <mxCell id="0" />
        <mxCell id="1" parent="0" />
        <mxCell id="6CQTmF0r4WQLNf_Vooez-1" value="Actor" style="shape=umlActor;verticalLabelPosition=bottom;verticalAlign=top;html=1;outlineConnect=0;" parent="1" vertex="1">
          <mxGeometry x="80" y="40" width="30" height="60" as="geometry" />
        </mxCell>
        <mxCell id="6CQTmF0r4WQLNf_Vooez-2" value="Server" style="html=1;whiteSpace=wrap;" parent="1" vertex="1">
          <mxGeometry x="540" y="45" width="110" height="50" as="geometry" />
        </mxCell>
        <mxCell id="6CQTmF0r4WQLNf_Vooez-3" value="Admin panel" style="html=1;whiteSpace=wrap;" parent="1" vertex="1">
          <mxGeometry x="270" y="45" width="110" height="50" as="geometry" />
        </mxCell>
        <mxCell id="6CQTmF0r4WQLNf_Vooez-4" value="Database" style="html=1;whiteSpace=wrap;" parent="1" vertex="1">
          <mxGeometry x="810" y="45" width="110" height="50" as="geometry" />
        </mxCell>
        <mxCell id="6CQTmF0r4WQLNf_Vooez-6" value="" style="endArrow=none;dashed=1;endFill=0;endSize=12;html=1;rounded=0;" parent="1" edge="1">
          <mxGeometry width="160" relative="1" as="geometry">
            <mxPoint x="94.5" y="120" as="sourcePoint" />
            <mxPoint x="95" y="1240" as="targetPoint" />
          </mxGeometry>
        </mxCell>
        <mxCell id="6CQTmF0r4WQLNf_Vooez-7" value="" style="endArrow=none;dashed=1;endFill=0;endSize=12;html=1;rounded=0;" parent="1" source="6CQTmF0r4WQLNf_Vooez-46" edge="1">
          <mxGeometry width="160" relative="1" as="geometry">
            <mxPoint x="324.5" y="95" as="sourcePoint" />
            <mxPoint x="325" y="1240" as="targetPoint" />
          </mxGeometry>
        </mxCell>
        <mxCell id="6CQTmF0r4WQLNf_Vooez-8" value="" style="endArrow=none;dashed=1;endFill=0;endSize=12;html=1;rounded=0;exitX=0.5;exitY=1;exitDx=0;exitDy=0;" parent="1" source="6CQTmF0r4WQLNf_Vooez-48" edge="1">
          <mxGeometry width="160" relative="1" as="geometry">
            <mxPoint x="594.5" y="420" as="sourcePoint" />
            <mxPoint x="595" y="1240" as="targetPoint" />
          </mxGeometry>
        </mxCell>
        <mxCell id="6CQTmF0r4WQLNf_Vooez-9" value="" style="endArrow=none;dashed=1;endFill=0;endSize=12;html=1;rounded=0;exitX=0.5;exitY=1;exitDx=0;exitDy=0;" parent="1" source="6CQTmF0r4WQLNf_Vooez-4" edge="1">
          <mxGeometry width="160" relative="1" as="geometry">
            <mxPoint x="864.5" y="410" as="sourcePoint" />
            <mxPoint x="865" y="1240" as="targetPoint" />
          </mxGeometry>
        </mxCell>
        <mxCell id="6CQTmF0r4WQLNf_Vooez-10" value="&lt;pre&gt;&lt;code class=&quot;!whitespace-pre hljs language-makefile&quot;&gt;Navigates to maintenance &lt;br&gt;request page&lt;/code&gt;&lt;/pre&gt;" style="text;html=1;align=center;verticalAlign=middle;resizable=0;points=[];autosize=1;strokeColor=none;fillColor=none;" parent="1" vertex="1">
          <mxGeometry x="110" y="140" width="200" height="70" as="geometry" />
        </mxCell>
        <mxCell id="6CQTmF0r4WQLNf_Vooez-11" value="&lt;pre&gt;&lt;code class=&quot;!whitespace-pre hljs language-makefile&quot;&gt;Show maintenance request &lt;br&gt;page&lt;/code&gt;&lt;/pre&gt;" style="text;html=1;align=center;verticalAlign=middle;resizable=0;points=[];autosize=1;strokeColor=none;fillColor=none;" parent="1" vertex="1">
          <mxGeometry x="115" y="210" width="200" height="70" as="geometry" />
        </mxCell>
        <mxCell id="6CQTmF0r4WQLNf_Vooez-12" value="&lt;pre&gt;&lt;code class=&quot;!whitespace-pre hljs language-makefile&quot;&gt;Fills out maintenance request &lt;br&gt;form&lt;/code&gt;&lt;/pre&gt;" style="text;html=1;align=center;verticalAlign=middle;resizable=0;points=[];autosize=1;strokeColor=none;fillColor=none;" parent="1" vertex="1">
          <mxGeometry x="100" y="280" width="230" height="70" as="geometry" />
        </mxCell>
        <mxCell id="6CQTmF0r4WQLNf_Vooez-13" value="&lt;pre&gt;&lt;code class=&quot;!whitespace-pre hljs language-makefile&quot;&gt;Sends maintenance request form data&lt;/code&gt;&lt;/pre&gt;" style="text;html=1;align=center;verticalAlign=middle;resizable=0;points=[];autosize=1;strokeColor=none;fillColor=none;" parent="1" vertex="1">
          <mxGeometry x="320" y="340" width="270" height="50" as="geometry" />
        </mxCell>
        <mxCell id="6CQTmF0r4WQLNf_Vooez-14" value="&lt;pre&gt;&lt;code class=&quot;!whitespace-pre hljs language-makefile&quot;&gt;Stores maintenance request in &lt;br&gt;database&lt;/code&gt;&lt;/pre&gt;" style="text;html=1;align=center;verticalAlign=middle;resizable=0;points=[];autosize=1;strokeColor=none;fillColor=none;" parent="1" vertex="1">
          <mxGeometry x="620" y="390" width="230" height="70" as="geometry" />
        </mxCell>
        <mxCell id="6CQTmF0r4WQLNf_Vooez-15" value="Return status" style="text;html=1;align=center;verticalAlign=middle;resizable=0;points=[];autosize=1;strokeColor=none;fillColor=none;" parent="1" vertex="1">
          <mxGeometry x="685" y="480" width="100" height="30" as="geometry" />
        </mxCell>
        <mxCell id="6CQTmF0r4WQLNf_Vooez-16" value="Return status" style="text;html=1;align=center;verticalAlign=middle;resizable=0;points=[];autosize=1;strokeColor=none;fillColor=none;" parent="1" vertex="1">
          <mxGeometry x="405" y="510" width="100" height="30" as="geometry" />
        </mxCell>
        <mxCell id="6CQTmF0r4WQLNf_Vooez-17" value="&lt;pre&gt;&lt;code class=&quot;!whitespace-pre hljs language-makefile&quot;&gt;Sends notification of new &lt;br&gt;maintenance request&lt;/code&gt;&lt;/pre&gt;" style="text;html=1;align=center;verticalAlign=middle;resizable=0;points=[];autosize=1;strokeColor=none;fillColor=none;" parent="1" vertex="1">
          <mxGeometry x="110" y="528" width="210" height="70" as="geometry" />
        </mxCell>
        <mxCell id="6CQTmF0r4WQLNf_Vooez-18" value="&lt;pre&gt;&lt;code class=&quot;!whitespace-pre hljs language-makefile&quot;&gt;Accesses maintenance request &lt;br&gt;page&lt;/code&gt;&lt;/pre&gt;" style="text;html=1;align=center;verticalAlign=middle;resizable=0;points=[];autosize=1;strokeColor=none;fillColor=none;" parent="1" vertex="1">
          <mxGeometry x="100" y="610" width="230" height="70" as="geometry" />
        </mxCell>
        <mxCell id="6CQTmF0r4WQLNf_Vooez-19" value="&lt;pre&gt;&lt;code class=&quot;!whitespace-pre hljs language-makefile&quot;&gt;Show maintenance request page&lt;/code&gt;&lt;/pre&gt;" style="text;html=1;align=center;verticalAlign=middle;resizable=0;points=[];autosize=1;strokeColor=none;fillColor=none;" parent="1" vertex="1">
          <mxGeometry x="95" y="680" width="230" height="50" as="geometry" />
        </mxCell>
        <mxCell id="6CQTmF0r4WQLNf_Vooez-20" value="&lt;pre&gt;&lt;code class=&quot;!whitespace-pre hljs language-makefile&quot;&gt;Views maintenance request &lt;br&gt;details&lt;/code&gt;&lt;/pre&gt;" style="text;html=1;align=center;verticalAlign=middle;resizable=0;points=[];autosize=1;strokeColor=none;fillColor=none;" parent="1" vertex="1">
          <mxGeometry x="105" y="740" width="210" height="70" as="geometry" />
        </mxCell>
        <mxCell id="6CQTmF0r4WQLNf_Vooez-21" value="&lt;pre&gt;&lt;code class=&quot;!whitespace-pre hljs language-makefile&quot;&gt;Show maintenance request details&lt;/code&gt;&lt;/pre&gt;" style="text;html=1;align=center;verticalAlign=middle;resizable=0;points=[];autosize=1;strokeColor=none;fillColor=none;" parent="1" vertex="1">
          <mxGeometry x="85" y="810" width="250" height="50" as="geometry" />
        </mxCell>
        <mxCell id="6CQTmF0r4WQLNf_Vooez-22" value="&lt;pre&gt;&lt;code class=&quot;!whitespace-pre hljs language-makefile&quot;&gt;Updates maintenance request &lt;br&gt;status&lt;/code&gt;&lt;/pre&gt;" style="text;html=1;align=center;verticalAlign=middle;resizable=0;points=[];autosize=1;strokeColor=none;fillColor=none;" parent="1" vertex="1">
          <mxGeometry x="95" y="870" width="220" height="70" as="geometry" />
        </mxCell>
        <mxCell id="6CQTmF0r4WQLNf_Vooez-23" value="&lt;pre&gt;&lt;code class=&quot;!whitespace-pre hljs language-makefile&quot;&gt;Sends maintenance request status &lt;br&gt;update&lt;/code&gt;&lt;/pre&gt;" style="text;html=1;align=center;verticalAlign=middle;resizable=0;points=[];autosize=1;strokeColor=none;fillColor=none;" parent="1" vertex="1">
          <mxGeometry x="335" y="930" width="250" height="70" as="geometry" />
        </mxCell>
        <mxCell id="6CQTmF0r4WQLNf_Vooez-24" value="&lt;pre&gt;&lt;code class=&quot;!whitespace-pre hljs language-makefile&quot;&gt;Updates maintenance request &lt;br&gt;status in database&lt;/code&gt;&lt;/pre&gt;" style="text;html=1;align=center;verticalAlign=middle;resizable=0;points=[];autosize=1;strokeColor=none;fillColor=none;" parent="1" vertex="1">
          <mxGeometry x="620" y="980" width="220" height="70" as="geometry" />
        </mxCell>
        <mxCell id="6CQTmF0r4WQLNf_Vooez-25" value="Return status" style="text;html=1;align=center;verticalAlign=middle;resizable=0;points=[];autosize=1;strokeColor=none;fillColor=none;" parent="1" vertex="1">
          <mxGeometry x="670" y="1070" width="100" height="30" as="geometry" />
        </mxCell>
        <mxCell id="6CQTmF0r4WQLNf_Vooez-26" value="Return status" style="text;html=1;align=center;verticalAlign=middle;resizable=0;points=[];autosize=1;strokeColor=none;fillColor=none;" parent="1" vertex="1">
          <mxGeometry x="405" y="1100" width="100" height="30" as="geometry" />
        </mxCell>
        <mxCell id="6CQTmF0r4WQLNf_Vooez-27" value="&lt;pre&gt;&lt;code class=&quot;!whitespace-pre hljs language-makefile&quot;&gt;Display maintenance request &lt;br&gt;status update&lt;/code&gt;&lt;/pre&gt;" style="text;html=1;align=center;verticalAlign=middle;resizable=0;points=[];autosize=1;strokeColor=none;fillColor=none;" parent="1" vertex="1">
          <mxGeometry x="100" y="1120" width="220" height="70" as="geometry" />
        </mxCell>
        <mxCell id="6CQTmF0r4WQLNf_Vooez-28" value="" style="endArrow=block;endFill=0;endSize=12;html=1;rounded=0;" parent="1" edge="1">
          <mxGeometry width="160" relative="1" as="geometry">
            <mxPoint x="100" y="200" as="sourcePoint" />
            <mxPoint x="320" y="200" as="targetPoint" />
          </mxGeometry>
        </mxCell>
        <mxCell id="6CQTmF0r4WQLNf_Vooez-29" value="" style="endArrow=block;dashed=1;endFill=0;endSize=12;html=1;rounded=0;" parent="1" edge="1">
          <mxGeometry width="160" relative="1" as="geometry">
            <mxPoint x="320" y="260" as="sourcePoint" />
            <mxPoint x="100" y="260" as="targetPoint" />
          </mxGeometry>
        </mxCell>
        <mxCell id="6CQTmF0r4WQLNf_Vooez-30" value="" style="endArrow=block;endFill=0;endSize=12;html=1;rounded=0;" parent="1" edge="1">
          <mxGeometry width="160" relative="1" as="geometry">
            <mxPoint x="100" y="330" as="sourcePoint" />
            <mxPoint x="320" y="330" as="targetPoint" />
          </mxGeometry>
        </mxCell>
        <mxCell id="6CQTmF0r4WQLNf_Vooez-31" value="" style="endArrow=block;endFill=0;endSize=12;html=1;rounded=0;entryX=1;entryY=0.8;entryDx=0;entryDy=0;entryPerimeter=0;" parent="1" target="6CQTmF0r4WQLNf_Vooez-13" edge="1">
          <mxGeometry width="160" relative="1" as="geometry">
            <mxPoint x="330" y="380" as="sourcePoint" />
            <mxPoint x="550" y="380" as="targetPoint" />
          </mxGeometry>
        </mxCell>
        <mxCell id="6CQTmF0r4WQLNf_Vooez-32" value="" style="endArrow=block;dashed=1;endFill=0;endSize=12;html=1;rounded=0;" parent="1" source="6CQTmF0r4WQLNf_Vooez-50" edge="1">
          <mxGeometry width="160" relative="1" as="geometry">
            <mxPoint x="600" y="440" as="sourcePoint" />
            <mxPoint x="860" y="440" as="targetPoint" />
          </mxGeometry>
        </mxCell>
        <mxCell id="6CQTmF0r4WQLNf_Vooez-33" value="" style="endArrow=block;dashed=1;endFill=0;endSize=12;html=1;rounded=0;" parent="1" edge="1">
          <mxGeometry width="160" relative="1" as="geometry">
            <mxPoint x="860" y="510" as="sourcePoint" />
            <mxPoint x="600" y="510" as="targetPoint" />
          </mxGeometry>
        </mxCell>
        <mxCell id="6CQTmF0r4WQLNf_Vooez-34" value="" style="endArrow=block;dashed=1;endFill=0;endSize=12;html=1;rounded=0;" parent="1" edge="1">
          <mxGeometry width="160" relative="1" as="geometry">
            <mxPoint x="590" y="540" as="sourcePoint" />
            <mxPoint x="330" y="540" as="targetPoint" />
          </mxGeometry>
        </mxCell>
        <mxCell id="6CQTmF0r4WQLNf_Vooez-35" value="" style="endArrow=block;endFill=0;endSize=12;html=1;rounded=0;" parent="1" edge="1">
          <mxGeometry width="160" relative="1" as="geometry">
            <mxPoint x="320" y="580" as="sourcePoint" />
            <mxPoint x="100" y="580" as="targetPoint" />
          </mxGeometry>
        </mxCell>
        <mxCell id="6CQTmF0r4WQLNf_Vooez-36" value="" style="endArrow=block;endFill=0;endSize=12;html=1;rounded=0;" parent="1" edge="1">
          <mxGeometry width="160" relative="1" as="geometry">
            <mxPoint x="100" y="660" as="sourcePoint" />
            <mxPoint x="320" y="660" as="targetPoint" />
          </mxGeometry>
        </mxCell>
        <mxCell id="6CQTmF0r4WQLNf_Vooez-37" value="" style="endArrow=block;dashed=1;endFill=0;endSize=12;html=1;rounded=0;" parent="1" edge="1">
          <mxGeometry width="160" relative="1" as="geometry">
            <mxPoint x="320" y="720" as="sourcePoint" />
            <mxPoint x="100" y="720" as="targetPoint" />
          </mxGeometry>
        </mxCell>
        <mxCell id="6CQTmF0r4WQLNf_Vooez-38" value="" style="endArrow=block;endFill=0;endSize=12;html=1;rounded=0;" parent="1" edge="1">
          <mxGeometry width="160" relative="1" as="geometry">
            <mxPoint x="100" y="790" as="sourcePoint" />
            <mxPoint x="320" y="790" as="targetPoint" />
          </mxGeometry>
        </mxCell>
        <mxCell id="6CQTmF0r4WQLNf_Vooez-39" value="" style="endArrow=block;dashed=1;endFill=0;endSize=12;html=1;rounded=0;" parent="1" edge="1">
          <mxGeometry width="160" relative="1" as="geometry">
            <mxPoint x="320" y="849" as="sourcePoint" />
            <mxPoint x="100" y="849" as="targetPoint" />
          </mxGeometry>
        </mxCell>
        <mxCell id="6CQTmF0r4WQLNf_Vooez-40" value="" style="endArrow=block;endFill=0;endSize=12;html=1;rounded=0;" parent="1" edge="1">
          <mxGeometry width="160" relative="1" as="geometry">
            <mxPoint x="100" y="920" as="sourcePoint" />
            <mxPoint x="320" y="920" as="targetPoint" />
          </mxGeometry>
        </mxCell>
        <mxCell id="6CQTmF0r4WQLNf_Vooez-41" value="" style="endArrow=block;endFill=0;endSize=12;html=1;rounded=0;entryX=1.008;entryY=0.729;entryDx=0;entryDy=0;entryPerimeter=0;" parent="1" target="6CQTmF0r4WQLNf_Vooez-23" edge="1">
          <mxGeometry width="160" relative="1" as="geometry">
            <mxPoint x="330" y="980" as="sourcePoint" />
            <mxPoint x="550" y="980" as="targetPoint" />
          </mxGeometry>
        </mxCell>
        <mxCell id="6CQTmF0r4WQLNf_Vooez-42" value="" style="endArrow=block;endFill=0;endSize=12;html=1;rounded=0;" parent="1" edge="1">
          <mxGeometry width="160" relative="1" as="geometry">
            <mxPoint x="600" y="1030" as="sourcePoint" />
            <mxPoint x="860" y="1030" as="targetPoint" />
          </mxGeometry>
        </mxCell>
        <mxCell id="6CQTmF0r4WQLNf_Vooez-43" value="" style="endArrow=block;dashed=1;endFill=0;endSize=12;html=1;rounded=0;" parent="1" edge="1">
          <mxGeometry width="160" relative="1" as="geometry">
            <mxPoint x="860" y="1099" as="sourcePoint" />
            <mxPoint x="600" y="1099" as="targetPoint" />
          </mxGeometry>
        </mxCell>
        <mxCell id="6CQTmF0r4WQLNf_Vooez-44" value="" style="endArrow=block;dashed=1;endFill=0;endSize=12;html=1;rounded=0;" parent="1" edge="1">
          <mxGeometry width="160" relative="1" as="geometry">
            <mxPoint x="590" y="1130" as="sourcePoint" />
            <mxPoint x="330" y="1130" as="targetPoint" />
          </mxGeometry>
        </mxCell>
        <mxCell id="6CQTmF0r4WQLNf_Vooez-45" value="" style="endArrow=block;endFill=0;endSize=12;html=1;rounded=0;" parent="1" edge="1">
          <mxGeometry width="160" relative="1" as="geometry">
            <mxPoint x="320" y="1170" as="sourcePoint" />
            <mxPoint x="100" y="1170" as="targetPoint" />
          </mxGeometry>
        </mxCell>
        <mxCell id="6CQTmF0r4WQLNf_Vooez-47" value="" style="endArrow=none;dashed=1;endFill=0;endSize=12;html=1;rounded=0;" parent="1" target="6CQTmF0r4WQLNf_Vooez-46" edge="1">
          <mxGeometry width="160" relative="1" as="geometry">
            <mxPoint x="324.5" y="95" as="sourcePoint" />
            <mxPoint x="325" y="1240" as="targetPoint" />
          </mxGeometry>
        </mxCell>
        <mxCell id="6CQTmF0r4WQLNf_Vooez-46" value="" style="html=1;points=[];perimeter=orthogonalPerimeter;outlineConnect=0;targetShapes=umlLifeline;portConstraint=eastwest;newEdgeStyle={&quot;edgeStyle&quot;:&quot;elbowEdgeStyle&quot;,&quot;elbow&quot;:&quot;vertical&quot;,&quot;curved&quot;:0,&quot;rounded&quot;:0};" parent="1" vertex="1">
          <mxGeometry x="320" y="180" width="10" height="1000" as="geometry" />
        </mxCell>
        <mxCell id="6CQTmF0r4WQLNf_Vooez-49" value="" style="endArrow=none;dashed=1;endFill=0;endSize=12;html=1;rounded=0;exitX=0.5;exitY=1;exitDx=0;exitDy=0;" parent="1" source="6CQTmF0r4WQLNf_Vooez-2" target="6CQTmF0r4WQLNf_Vooez-48" edge="1">
          <mxGeometry width="160" relative="1" as="geometry">
            <mxPoint x="595" y="95" as="sourcePoint" />
            <mxPoint x="595" y="1240" as="targetPoint" />
          </mxGeometry>
        </mxCell>
        <mxCell id="6CQTmF0r4WQLNf_Vooez-48" value="" style="html=1;points=[];perimeter=orthogonalPerimeter;outlineConnect=0;targetShapes=umlLifeline;portConstraint=eastwest;newEdgeStyle={&quot;edgeStyle&quot;:&quot;elbowEdgeStyle&quot;,&quot;elbow&quot;:&quot;vertical&quot;,&quot;curved&quot;:0,&quot;rounded&quot;:0};" parent="1" vertex="1">
          <mxGeometry x="590" y="360" width="10" height="780" as="geometry" />
        </mxCell>
        <mxCell id="6CQTmF0r4WQLNf_Vooez-51" value="" style="endArrow=block;endFill=0;endSize=12;html=1;rounded=0;" parent="1" target="6CQTmF0r4WQLNf_Vooez-50" edge="1">
          <mxGeometry width="160" relative="1" as="geometry">
            <mxPoint x="600" y="440" as="sourcePoint" />
            <mxPoint x="860" y="440" as="targetPoint" />
          </mxGeometry>
        </mxCell>
        <mxCell id="6CQTmF0r4WQLNf_Vooez-50" value="" style="html=1;points=[];perimeter=orthogonalPerimeter;outlineConnect=0;targetShapes=umlLifeline;portConstraint=eastwest;newEdgeStyle={&quot;edgeStyle&quot;:&quot;elbowEdgeStyle&quot;,&quot;elbow&quot;:&quot;vertical&quot;,&quot;curved&quot;:0,&quot;rounded&quot;:0};" parent="1" vertex="1">
          <mxGeometry x="860" y="420" width="10" height="690" as="geometry" />
        </mxCell>
        <mxCell id="-590FmWuyhCixyHufBc0-1" value="maintenence management" style="text;html=1;align=center;verticalAlign=middle;resizable=0;points=[];autosize=1;strokeColor=none;fillColor=none;" vertex="1" parent="1">
          <mxGeometry x="465" width="170" height="30" as="geometry" />
        </mxCell>
      </root>
    </mxGraphModel>
  </diagram>
</mxfile>
